<svg width="30" height="30" viewBox="0 0 30 30" fill="none" xmlns="http://www.w3.org/2000/svg">
<path d="M15 10.9375C13.9226 10.9375 12.8892 11.3655 12.1274 12.1274C11.3655 12.8892 10.9375 13.9226 10.9375 15C10.9375 16.0774 11.3655 17.1108 12.1274 17.8726C12.8892 18.6345 13.9226 19.0625 15 19.0625C16.0774 19.0625 17.1108 18.6345 17.8726 17.8726C18.6345 17.1108 19.0625 16.0774 19.0625 15C19.0625 13.9226 18.6345 12.8892 17.8726 12.1274C17.1108 11.3655 16.0774 10.9375 15 10.9375Z" fill="white"/>
<path fill-rule="evenodd" clip-rule="evenodd" d="M8.46252 3.85243C12.8075 3.3708 17.1925 3.3708 21.5375 3.85243C23.9113 4.11743 25.825 5.98618 26.1038 8.36868C26.619 12.7745 26.619 17.2254 26.1038 21.6312C25.825 24.0137 23.9113 25.8824 21.5388 26.1487C17.1933 26.6304 12.808 26.6304 8.46252 26.1487C6.08877 25.8824 4.17502 24.0137 3.89627 21.6324C3.38093 17.2262 3.38093 12.7749 3.89627 8.36868C4.17502 5.98618 6.08877 4.11743 8.46252 3.85243ZM21.25 7.49993C20.9185 7.49993 20.6006 7.63163 20.3661 7.86605C20.1317 8.10047 20 8.41841 20 8.74993C20 9.08145 20.1317 9.39939 20.3661 9.63381C20.6006 9.86823 20.9185 9.99993 21.25 9.99993C21.5815 9.99993 21.8995 9.86823 22.1339 9.63381C22.3683 9.39939 22.5 9.08145 22.5 8.74993C22.5 8.41841 22.3683 8.10047 22.1339 7.86605C21.8995 7.63163 21.5815 7.49993 21.25 7.49993ZM9.06252 14.9999C9.06252 13.4252 9.68808 11.915 10.8016 10.8015C11.9151 9.68799 13.4253 9.06243 15 9.06243C16.5747 9.06243 18.085 9.68799 19.1985 10.8015C20.312 11.915 20.9375 13.4252 20.9375 14.9999C20.9375 16.5747 20.312 18.0849 19.1985 19.1984C18.085 20.3119 16.5747 20.9374 15 20.9374C13.4253 20.9374 11.9151 20.3119 10.8016 19.1984C9.68808 18.0849 9.06252 16.5747 9.06252 14.9999Z" fill="white"/>
</svg>
